<?xml version="1.0" encoding="UTF-8" standalone="no"?>
<!-- Generated by IcoMoon.io -->

<svg
   xmlns:dc="http://purl.org/dc/elements/1.1/"
   xmlns:cc="http://creativecommons.org/ns#"
   xmlns:rdf="http://www.w3.org/1999/02/22-rdf-syntax-ns#"
   xmlns:svg="http://www.w3.org/2000/svg"
   xmlns="http://www.w3.org/2000/svg"
   xmlns:sodipodi="http://sodipodi.sourceforge.net/DTD/sodipodi-0.dtd"
   xmlns:inkscape="http://www.inkscape.org/namespaces/inkscape"
   version="1.1"
   width="26.625"
   height="13.377"
   viewBox="0 0 26.625 13.377"
   id="svg6"
   sodipodi:docname="link.svg"
   inkscape:version="0.92.2 5c3e80d, 2017-08-06">
  <metadata
     id="metadata12">
    <rdf:RDF>
      <cc:Work
         rdf:about="">
        <dc:format>image/svg+xml</dc:format>
        <dc:type
           rdf:resource="http://purl.org/dc/dcmitype/StillImage" />
      </cc:Work>
    </rdf:RDF>
  </metadata>
  <defs
     id="defs10" />
  <sodipodi:namedview
     pagecolor="#ffffff"
     bordercolor="#666666"
     borderopacity="1"
     objecttolerance="10"
     gridtolerance="10"
     guidetolerance="10"
     inkscape:pageopacity="0"
     inkscape:pageshadow="2"
     inkscape:window-width="640"
     inkscape:window-height="480"
     id="namedview8"
     showgrid="false"
     inkscape:zoom="7.375"
     inkscape:cx="13.312"
     inkscape:cy="6.689"
     inkscape:window-x="168"
     inkscape:window-y="25"
     inkscape:window-maximized="0"
     inkscape:current-layer="svg6" />
  <title
     id="title2">link</title>
  <path
     d="m 20,0.001 c 3.688,0 6.625,3 6.625,6.688 0,3.688 -2.938,6.688 -6.625,6.688 H 14.625 V 10.814 H 20 c 2.25,0 4.125,-1.875 4.125,-4.125 C 24.125,4.439 22.25,2.564 20,2.564 H 14.625 V 0.001 Z m -12,8 V 5.376 H 18.625 V 8.001 Z M 2.5,6.688 c 0,2.25 1.875,4.125 4.125,4.125 H 12 v 2.563 H 6.625 C 2.937,13.376 0,10.376 0,6.688 0,3 2.938,0 6.625,0 H 12 V 2.563 H 6.625 C 4.375,2.563 2.5,4.438 2.5,6.688 Z"
     id="path4"
     inkscape:connector-curvature="0" />
</svg>
