
<svg
   xmlns:dc="http://purl.org/dc/elements/1.1/"
   xmlns:cc="http://creativecommons.org/ns#"
   xmlns:rdf="http://www.w3.org/1999/02/22-rdf-syntax-ns#"
   xmlns:svg="http://www.w3.org/2000/svg"
   xmlns="http://www.w3.org/2000/svg"
   xmlns:sodipodi="http://sodipodi.sourceforge.net/DTD/sodipodi-0.dtd"
   xmlns:inkscape="http://www.inkscape.org/namespaces/inkscape"
   aria-hidden="true"
   data-prefix="fas"
   data-icon="link"
   fill="#fff"
   class="svg-inline--fa fa-link fa-w-16"
   role="img"
   viewBox="0 0 511.99988 512.00098"
   version="1.1"
   sodipodi:docname="link-solid.svg"
   id="link-solid"
   width="511.99988"
   height="512.00098"
   inkscape:version="0.92.2 5c3e80d, 2017-08-06">
  <metadata
     id="metadata10">
    <rdf:RDF>
      <cc:Work
         rdf:about="">
        <dc:format>image/svg+xml</dc:format>
        <dc:type
           rdf:resource="http://purl.org/dc/dcmitype/StillImage" />
      </cc:Work>
    </rdf:RDF>
  </metadata>
  <defs
     id="defs8" />
  <sodipodi:namedview
     pagecolor="#ffffff"
     bordercolor="#666666"
     borderopacity="1"
     objecttolerance="10"
     gridtolerance="10"
     guidetolerance="10"
     inkscape:pageopacity="0"
     inkscape:pageshadow="2"
     inkscape:window-width="640"
     inkscape:window-height="480"
     id="namedview6"
     showgrid="false"
     inkscape:zoom="0.4609375"
     inkscape:cx="256.0005"
     inkscape:cy="256.0005"
     inkscape:window-x="0"
     inkscape:window-y="0"
     inkscape:window-maximized="0"
     inkscape:current-layer="svg4" />
  <path
     d="m 326.6125,185.3915 c 59.747,59.809 58.927,155.698 0.36,214.59 -0.11,0.12 -0.24,0.25 -0.36,0.37 l -67.2,67.2 c -59.27,59.27 -155.699,59.262 -214.96,0 -59.27,-59.26 -59.27,-155.7 0,-214.96 l 37.106,-37.106 c 9.84,-9.84 26.786,-3.3 27.294,10.606 0.648,17.722 3.826,35.527 9.69,52.721 1.986,5.822 0.567,12.262 -3.783,16.612 l -13.087,13.087 c -28.026,28.026 -28.905,73.66 -1.155,101.96 28.024,28.579 74.086,28.749 102.325,0.51 l 67.2,-67.19 c 28.191,-28.191 28.073,-73.757 0,-101.83 -3.701,-3.694 -7.429,-6.564 -10.341,-8.569 a 16.037,16.037 0 0 1 -6.947,-12.606 c -0.396,-10.567 3.348,-21.456 11.698,-29.806 l 21.054,-21.055 c 5.521,-5.521 14.182,-6.199 20.584,-1.731 a 152.482,152.482 0 0 1 20.522,17.197 z m 140.935,-140.942 c -59.261,-59.262 -155.69,-59.27 -214.96,0 l -67.2,67.2 c -0.12,0.12 -0.25,0.25 -0.36,0.37 -58.566,58.892 -59.387,154.781 0.36,214.59 a 152.454,152.454 0 0 0 20.521,17.196 c 6.402,4.468 15.064,3.789 20.584,-1.731 l 21.054,-21.055 c 8.35,-8.35 12.094,-19.239 11.698,-29.806 a 16.037,16.037 0 0 0 -6.947,-12.606 c -2.912,-2.005 -6.64,-4.875 -10.341,-8.569 -28.073,-28.073 -28.191,-73.639 0,-101.83 l 67.2,-67.19 c 28.239,-28.239 74.3,-28.069 102.325,0.51 27.75,28.3 26.872,73.934 -1.155,101.96 l -13.087,13.087 c -4.35,4.35 -5.769,10.79 -3.783,16.612 5.864,17.194 9.042,34.999 9.69,52.721 0.509,13.906 17.454,20.446 27.294,10.606 l 37.106,-37.106 c 59.271,-59.259 59.271,-155.699 0.001,-214.959 z"
     id="path2"
     inkscape:connector-curvature="0" />
</svg>


<svg
   xmlns:dc="http://purl.org/dc/elements/1.1/"
   xmlns:cc="http://creativecommons.org/ns#"
   xmlns:rdf="http://www.w3.org/1999/02/22-rdf-syntax-ns#"
   xmlns:svg="http://www.w3.org/2000/svg"
   xmlns="http://www.w3.org/2000/svg"
   xmlns:sodipodi="http://sodipodi.sourceforge.net/DTD/sodipodi-0.dtd"
   xmlns:inkscape="http://www.inkscape.org/namespaces/inkscape"
   viewBox="0 0 320.10001 206.68755"
   version="1.1"
   id="svg4"
   sodipodi:docname="angle-up.svg"
   width="320.10001"
   height="206.68755"
   inkscape:version="0.92.2 5c3e80d, 2017-08-06">
  <metadata
     id="metadata10">
    <rdf:RDF>
      <cc:Work
         rdf:about="">
        <dc:format>image/svg+xml</dc:format>
        <dc:type
           rdf:resource="http://purl.org/dc/dcmitype/StillImage" />
      </cc:Work>
    </rdf:RDF>
  </metadata>
  <defs
     id="defs8" />
  <sodipodi:namedview
     pagecolor="#ffffff"
     bordercolor="#666666"
     borderopacity="1"
     objecttolerance="10"
     gridtolerance="10"
     guidetolerance="10"
     inkscape:pageopacity="0"
     inkscape:pageshadow="2"
     inkscape:window-width="729"
     inkscape:window-height="480"
     id="namedview6"
     showgrid="false"
     inkscape:zoom="0.4609375"
     inkscape:cx="160.05"
     inkscape:cy="103.35"
     inkscape:window-x="0"
     inkscape:window-y="0"
     inkscape:window-maximized="0"
     inkscape:current-layer="svg4" />
  <path
     d="m 177.05,7.0375496 136,136.0000004 c 9.4,9.4 9.4,24.6 0,33.9 l -22.6,22.6 c -9.4,9.4 -24.6,9.4 -33.9,0 l -96.5,-96.3 -96.4,96.4 c -9.4,9.4 -24.6,9.4 -33.9,0 l -22.7,-22.6 c -9.4,-9.4 -9.4,-24.6 0,-33.9 l 136,-136.0000004 c 9.4,-9.5 24.6,-9.5 34,-0.1 z"
     id="path2"
     inkscape:connector-curvature="0" />
</svg>

