<?xml version="1.0" encoding="UTF-8"?><!DOCTYPE svg PUBLIC "-//W3C//DTD SVG 1.1//EN" "http://www.w3.org/Graphics/SVG/1.1/DTD/svg11.dtd"><svg xmlns="http://www.w3.org/2000/svg" xmlns:xlink="http://www.w3.org/1999/xlink"><symbol id="angle-left" viewBox="0 0 206.688 320.1"><path d="m7.038 143.05 136-136c9.4-9.4 24.6-9.4 33.9 0l22.6 22.6c9.4 9.4 9.4 24.6 0 33.9l-96.3 96.5 96.4 96.4c9.4 9.4 9.4 24.6 0 33.9l-22.6 22.7c-9.4 9.4-24.6 9.4-33.9 0l-136-136c-9.5-9.4-9.5-24.6-.1-34"/></symbol><symbol id="angle-up" viewBox="0 0 320.1 206.688"><path d="m177.05 7.038 136 136c9.4 9.4 9.4 24.6 0 33.9l-22.6 22.6c-9.4 9.4-24.6 9.4-33.9 0l-96.5-96.3-96.4 96.4c-9.4 9.4-24.6 9.4-33.9 0l-22.7-22.6c-9.4-9.4-9.4-24.6 0-33.9l136-136c9.4-9.5 24.6-9.5 34-.1"/></symbol><symbol id="apple" viewBox="0 0 427.961 483.711"><path d="M40.738 112.119c-25.785 44.745-9.393 112.648 19.121 153.82C74.092 286.523 88.502 305 108.239 305c.372 0 .745-.007 1.127-.022 9.273-.37 15.974-3.225 22.453-5.984 7.274-3.1 14.797-6.305 26.597-6.305 11.226 0 18.39 3.101 25.318 6.099 6.828 2.954 13.861 6.01 24.253 5.815 22.232-.414 35.882-20.352 47.925-37.941 12.567-18.365 18.871-36.196 20.998-43.01l.086-.271a2.5 2.5 0 0 0-1.328-3.066c-.032-.015-.15-.064-.183-.078-3.915-1.601-38.257-16.836-38.618-58.36-.335-33.736 25.763-51.601 30.997-54.839l.244-.152a2.5 2.5 0 0 0 .71-3.511c-18.014-26.362-45.624-30.335-56.74-30.813a50 50 0 0 0-4.95-.242c-13.056 0-25.563 4.931-35.611 8.893-6.936 2.735-12.927 5.097-17.059 5.097-4.643 0-10.668-2.391-17.645-5.159-9.33-3.703-19.905-7.899-31.1-7.899q-.4 0-.789.008c-26.03.383-50.626 15.275-64.186 38.859" style="fill:#fff" transform="translate(61.48 89.355)"/><path d="M212.101.002c-15.763.642-34.672 10.345-45.974 23.583-9.605 11.127-18.988 29.679-16.516 48.379a2.5 2.5 0 0 0 2.284 2.164c1.064.083 2.15.125 3.232.126 15.413 0 32.04-8.527 43.395-22.257 11.951-14.498 17.994-33.104 16.166-49.77a2.515 2.515 0 0 0-2.587-2.225" style="fill:#fff" transform="translate(61.48 89.355)"/></symbol><symbol id="arrow-down" viewBox="0 0 16 9.875"><title>keyboard_arrow_down</title><path d="M1.875 0 8 6.125 14.125 0 16 1.875l-8 8-8-8z"/></symbol><symbol id="bars" viewBox="0 0 448 512"><path d="M16 132h416c8.837 0 16-7.163 16-16V76c0-8.837-7.163-16-16-16H16C7.163 60 0 67.163 0 76v40c0 8.837 7.163 16 16 16m0 160h416c8.837 0 16-7.163 16-16v-40c0-8.837-7.163-16-16-16H16c-8.837 0-16 7.163-16 16v40c0 8.837 7.163 16 16 16m0 160h416c8.837 0 16-7.163 16-16v-40c0-8.837-7.163-16-16-16H16c-8.837 0-16 7.163-16 16v40c0 8.837 7.163 16 16 16"/></symbol><symbol id="envelope" viewBox="0 0 26.625 21.376"><title>mail_outline</title><path d="M13.312 9.375 24 2.687H2.625ZM24 18.687V5.374l-10.688 6.625L2.624 5.374v13.313zM24 0c1.438 0 2.625 1.25 2.625 2.688v16c0 1.438-1.188 2.688-2.625 2.688H2.625C1.187 21.376 0 20.126 0 18.688v-16C0 1.25 1.188 0 2.625 0Z"/></symbol><symbol id="exclamation-triangle" viewBox="0 0 576 512"><path d="M569.517 440.013C587.975 472.007 564.806 512 527.94 512H48.054c-36.937 0-59.999-40.055-41.577-71.987L246.423 23.985c18.467-32.009 64.72-31.951 83.154 0zM288 354c-25.405 0-46 20.595-46 46s20.595 46 46 46 46-20.595 46-46-20.595-46-46-46m-43.673-165.346 7.418 136c.347 6.364 5.609 11.346 11.982 11.346h48.546c6.373 0 11.635-4.982 11.982-11.346l7.418-136c.375-6.874-5.098-12.654-11.982-12.654h-63.383c-6.884 0-12.356 5.78-11.981 12.654"/></symbol><symbol id="facebook" viewBox="0 0 12 24"><path d="M3 8H0v4h3v12h5V12h3.642L12 8H8V6.333C8 5.378 8.192 5 9.115 5H12V0H8.192C4.596 0 3 1.583 3 4.615Z"/></symbol><symbol id="gears" viewBox="0 0 645.82 654.625"><path d="m65.317 188.515-29.328 44.379 19.202 19.145 43.375-28.765c7.306 4.562 15.271 8.549 23.734 10.997l10.566 52.604h27.072l10.308-51.331c8.616-1.989 16.792-5.279 24.337-9.438l44.379 29.356 19.145-19.191-28.765-43.366c4.562-7.306 7.718-15.271 10.165-23.734l51.771-10.567v-27.071l-50.5-10.309c-1.988-8.616-4.867-16.792-9.017-24.327l29.568-44.38-19.088-19.144-43.317 28.764c-7.306-4.562-15.243-7.812-23.706-10.27L164.671 0H137.6l-10.309 50.595c-8.616 1.989-16.792 4.915-24.336 9.075l-44.38-29.539-19.144 19.097 28.764 43.318c-4.562 7.315-8.645 15.243-11.093 23.706L4.404 126.799v27.071l51.427 10.309c1.989 8.615 5.326 16.791 9.486 24.336m83.452-86.626c22.539 0 40.812 18.273 40.812 40.812s-18.274 40.813-40.812 40.813c-22.539 0-40.813-18.274-40.813-40.813s18.274-40.812 40.813-40.812" style="fill:#fff" transform="translate(87.538 91.942)"/><path d="m263.834 202.361 9.228 51.188c-7.268 5.029-13.722 10.939-19.201 17.585l-52.106-10.996-10.729 24.853 42.726 29.682c-1.549 8.482-1.979 17.203-1.128 25.972l-44.667 29.09 9.983 25.158 51.169-9.218c5.029 7.268 10.93 13.731 17.575 19.201l-11.007 52.106 24.854 10.729 29.682-42.725a94.2 94.2 0 0 0 25.962 1.109l29.08 44.647 25.159-9.983-9.209-51.15c7.268-5.029 13.731-10.92 19.211-17.566l52.116 11.007 10.729-24.853-42.725-29.673c1.549-8.481 1.979-17.193 1.138-25.972l44.666-29.089-9.983-25.159-51.169 9.218c-5.029-7.267-10.93-13.731-17.575-19.201l11.006-52.106-24.853-10.729-29.682 42.726c-8.482-1.55-17.203-1.999-25.981-1.157l-29.099-44.686zm48.252 91.313c20.952-8.319 44.677 1.932 52.996 22.883 8.319 20.952-1.932 44.677-22.884 52.996-20.951 8.319-44.676-1.932-52.995-22.884-8.309-20.961 1.932-44.686 22.883-52.995" style="fill:#fff" transform="translate(87.538 91.942)"/></symbol><symbol id="github" viewBox="0 0 24 24"><path d="M12 0C5.374 0 0 5.373 0 12c0 5.302 3.438 9.8 8.207 11.387.599.111.793-.261.793-.577v-2.234c-3.338.726-4.033-1.416-4.033-1.416-.546-1.387-1.333-1.756-1.333-1.756-1.089-.745.083-.729.083-.729 1.205.084 1.839 1.237 1.839 1.237 1.07 1.834 2.807 1.304 3.492.997.107-.775.418-1.305.762-1.604-2.665-.305-5.467-1.334-5.467-5.931 0-1.311.469-2.381 1.236-3.221-.124-.303-.535-1.524.117-3.176 0 0 1.008-.322 3.301 1.23A11.5 11.5 0 0 1 12 5.803c1.02.005 2.047.138 3.006.404 2.291-1.552 3.297-1.23 3.297-1.23.653 1.653.242 2.874.118 3.176.77.84 1.235 1.911 1.235 3.221 0 4.609-2.807 5.624-5.479 5.921.43.372.823 1.102.823 2.222v3.293c0 .319.192.694.801.576C20.566 21.797 24 17.3 24 12c0-6.627-5.373-12-12-12"/></symbol><symbol id="icloud" viewBox="0 0 664.948 510.879"><path d="M478.165 306.434c0 52.259-42.019 94.697-93.86 94.697H93.86C42.039 401.13 0 358.693 0 306.434c0-46.88 34.288-86.209 79.096-93.302-.598-3.287-.877-6.734-.877-10.241 0-33.133 26.618-59.83 59.512-59.83 14.684 0 28.032 5.24 38.353 14.106 18.569-41.839 42.198-80.132 108.703-80.132 80.431 0 118.665 62.62 118.665 128.646 0 2.809-.1 5.579-.379 8.169 42.875 8.845 75.092 47.078 75.092 92.584" style="fill:#fff" transform="translate(93.392 16.357)"/></symbol><symbol id="info-circle" viewBox="0 0 512 512"><path d="M256 8C119.043 8 8 119.083 8 256c0 136.997 111.043 248 248 248s248-111.003 248-248C504 119.083 392.957 8 256 8m0 110c23.196 0 42 18.804 42 42s-18.804 42-42 42-42-18.804-42-42 18.804-42 42-42m56 254c0 6.627-5.373 12-12 12h-88c-6.627 0-12-5.373-12-12v-24c0-6.627 5.373-12 12-12h12v-64h-12c-6.627 0-12-5.373-12-12v-24c0-6.627 5.373-12 12-12h64c6.627 0 12 5.373 12 12v100h12c6.627 0 12 5.373 12 12z"/></symbol><symbol id="lightbulb" viewBox="0 0 384 512"><path d="M272 428v28c0 10.449-6.68 19.334-16 22.629V488c0 13.255-10.745 24-24 24h-80c-13.255 0-24-10.745-24-24v-9.371c-9.32-3.295-16-12.18-16-22.629v-28c0-6.627 5.373-12 12-12h136c6.627 0 12 5.373 12 12m-143.107-44c-9.907 0-18.826-6.078-22.376-15.327C67.697 267.541 16 277.731 16 176 16 78.803 94.805 0 192 0s176 78.803 176 176c0 101.731-51.697 91.541-90.516 192.673-3.55 9.249-12.47 15.327-22.376 15.327zM112 176c0-44.112 35.888-80 80-80 8.837 0 16-7.164 16-16s-7.163-16-16-16c-61.757 0-112 50.243-112 112 0 8.836 7.164 16 16 16s16-7.164 16-16"/></symbol><symbol id="link-solid" viewBox="0 0 512 512.001"><path d="M326.613 185.392c59.747 59.809 58.927 155.698.36 214.59-.11.12-.24.25-.36.37l-67.2 67.2c-59.27 59.27-155.7 59.261-214.96 0-59.27-59.26-59.27-155.7 0-214.96l37.106-37.107c9.84-9.84 26.786-3.3 27.294 10.606.648 17.722 3.826 35.527 9.69 52.721 1.985 5.822.566 12.262-3.784 16.612l-13.086 13.087c-28.027 28.026-28.906 73.66-1.156 101.96 28.025 28.58 74.087 28.75 102.326.51l67.2-67.19c28.19-28.19 28.073-73.757 0-101.83-3.701-3.694-7.43-6.564-10.341-8.569a16.04 16.04 0 0 1-6.947-12.606c-.396-10.567 3.348-21.456 11.698-29.806l21.054-21.055c5.52-5.52 14.181-6.199 20.583-1.73a152.5 152.5 0 0 1 20.522 17.196M467.548 44.45c-59.261-59.262-155.69-59.27-214.96 0l-67.2 67.2c-.12.12-.25.25-.36.37-58.567 58.892-59.388 154.78.36 214.59a152.5 152.5 0 0 0 20.52 17.196c6.403 4.468 15.065 3.789 20.585-1.731l21.054-21.055c8.35-8.35 12.094-19.24 11.698-29.806a16.04 16.04 0 0 0-6.947-12.606c-2.912-2.005-6.64-4.875-10.341-8.57-28.073-28.072-28.191-73.638 0-101.83l67.2-67.19c28.239-28.238 74.3-28.068 102.325.51 27.75 28.3 26.871 73.935-1.156 101.96l-13.087 13.088c-4.35 4.35-5.768 10.79-3.782 16.612 5.864 17.194 9.042 34.999 9.69 52.72.509 13.907 17.454 20.447 27.294 10.607l37.106-37.106c59.27-59.26 59.27-155.7 0-214.96"/></symbol><symbol id="music" viewBox="0 0 738.539 775.07"><path d="M448.808 7.994C443.483 2.664 437.009 0 429.397 0c-3.046 0-5.715.383-7.994 1.143L183.861 74.232q-8.563 2.855-13.99 10.135-5.423 7.282-5.424 16.134v276.087q-24.842-11.139-54.818-11.139-12.847 0-27.55 2.994-14.71 2.993-29.552 9.134c-9.9 4.093-18.083 9.853-24.556 17.271-6.471 7.423-9.705 15.899-9.705 25.413 0 9.521 3.234 17.987 9.705 25.413 6.473 7.419 14.655 13.179 24.556 17.271q14.849 6.138 29.552 9.134 14.703 2.992 27.55 2.991 12.845 0 27.55-2.991c9.806-1.998 19.653-5.041 29.552-9.134 9.896-4.093 18.079-9.853 24.55-17.271 6.477-7.426 9.71-15.893 9.71-25.413v-202.42l219.271-67.665v153.317c-16.566-7.422-34.834-11.139-54.819-11.139q-12.849-.002-27.552 2.994c-9.805 1.995-19.65 5.041-29.551 9.134q-14.844 6.14-24.558 17.278c-6.468 7.416-9.712 15.89-9.712 25.406 0 9.521 3.244 17.987 9.712 25.413 6.476 7.423 14.661 13.183 24.558 17.271q14.844 6.14 29.551 9.138c9.801 1.998 18.986 2.99 27.552 2.99 8.562 0 17.747-.992 27.548-2.99 9.802-1.999 19.65-5.045 29.554-9.138 9.897-4.089 18.076-9.849 24.551-17.271 6.479-7.426 9.709-15.893 9.709-25.413V27.401c-.003-7.612-2.659-14.08-7.997-19.407" style="fill:#f4f4f4" transform="translate(131.734 150)"/></symbol><symbol id="puzzle" viewBox="0 0 674.132 507.731"><path fill="#f4f4f4" d="M540.799 188.799c-17.066 0-25.6 6.4-34.133 12.8-4.267 2.133-10.667 2.133-12.8-2.133-2.133-2.133-2.133-4.267-2.133-8.533l8.533-98.133c0-2.133 0-6.4-2.133-8.533S493.866 80 489.6 80h-96c-8.533 0-14.934 4.267-19.2 10.667-4.267 6.4-4.267 14.934 0 21.333 4.267 6.4 6.4 10.667 6.4 21.333 0 17.066-19.2 32-42.667 32s-42.667-14.934-42.667-32c0-8.533 2.133-14.934 6.4-21.333 4.267-6.4 4.267-14.934 0-21.333S291.199 80 282.666 80h-96c-2.133 0-6.4 2.133-8.533 4.267C176 86.4 176 88.534 176 92.8l8.533 98.133c0 4.267-2.133 6.4-2.133 8.533-4.267 4.267-8.533 6.4-14.934 2.133-8.533-6.4-17.066-10.667-34.133-10.667-29.867 0-53.333 27.733-53.333 64s23.467 64 53.333 64c17.066 0 25.6-6.4 34.133-12.8 4.267-2.133 10.667-2.133 12.8 2.133 2.133 2.133 2.133 4.267 2.133 8.533l-8.533 98.133c0 2.133 0 6.4 2.133 8.533s4.267 4.267 8.533 4.267h96c8.533 0 14.934-4.267 19.2-10.667 4.267-6.4 4.267-14.934 0-21.333-4.267-6.4-6.4-10.667-6.4-21.333 0-17.066 19.2-32 42.667-32s42.667 14.934 42.667 32c0 8.533-2.133 14.934-6.4 21.333-4.267 6.4-4.267 14.934 0 21.333s10.667 10.667 19.2 10.667h96c2.133 0 6.4-2.133 8.533-4.267 2.133-2.133 2.133-4.267 2.133-8.533l-8.533-98.133c0-4.267 2.133-6.4 2.133-8.533 4.267-4.267 8.533-6.4 14.934-2.133 8.533 6.4 17.066 10.667 34.133 10.667 29.867 0 53.333-27.733 53.333-64 .001-36.267-23.466-64-53.333-64"/></symbol><symbol id="times" viewBox="0 0 352 352"><path d="M242.72 176 342.79 75.93c12.28-12.28 12.28-32.19 0-44.48L320.55 9.21c-12.28-12.28-32.19-12.28-44.48 0L176 109.28 75.93 9.21c-12.28-12.28-32.19-12.28-44.48 0L9.21 31.45c-12.28 12.28-12.28 32.19 0 44.48L109.28 176 9.21 276.07c-12.28 12.28-12.28 32.19 0 44.48l22.24 22.24c12.28 12.28 32.2 12.28 44.48 0L176 242.72l100.07 100.07c12.28 12.28 32.2 12.28 44.48 0l22.24-22.24c12.28-12.28 12.28-32.19 0-44.48z"/></symbol><symbol id="twitter" viewBox="0 0 24 24"><path d="M24 4.557a9.8 9.8 0 0 1-2.828.775 4.93 4.93 0 0 0 2.165-2.724 9.9 9.9 0 0 1-3.127 1.195 4.92 4.92 0 0 0-3.594-1.555c-3.179 0-5.515 2.966-4.797 6.045A13.98 13.98 0 0 1 1.671 3.149a4.93 4.93 0 0 0 1.523 6.574 4.9 4.9 0 0 1-2.229-.616c-.054 2.281 1.581 4.415 3.949 4.89a4.9 4.9 0 0 1-2.224.084 4.93 4.93 0 0 0 4.6 3.419A9.9 9.9 0 0 1 0 19.54a13.94 13.94 0 0 0 7.548 2.212c9.142 0 14.307-7.721 13.995-14.646A10 10 0 0 0 24 4.557"/></symbol><symbol id="vk" viewBox="0 0 24 24"><path d="M13.162 18.994c.609 0 .858-.406.851-.915-.031-1.917.714-2.949 2.059-1.604 1.488 1.488 1.796 2.519 3.603 2.519h3.2c.808 0 1.126-.26 1.126-.668 0-.863-1.421-2.386-2.625-3.504-1.686-1.565-1.765-1.602-.313-3.486C22.864 8.997 25.22 6 23.136 6h-3.981c-.772 0-.828.435-1.103 1.083-.995 2.347-2.886 5.387-3.604 4.922-.751-.485-.407-2.406-.35-5.261.015-.754.011-1.271-1.141-1.539A8 8 0 0 0 11.148 5c-2.273 0-3.841.953-2.95 1.119 1.571.293 1.42 3.692 1.054 5.16-.638 2.556-3.036-2.024-4.035-4.305C4.976 6.426 4.902 6 4.042 6H.787C.295 6 0 6.16 0 6.516c0 .602 2.96 6.72 5.786 9.77 2.756 2.975 5.48 2.708 7.376 2.708" class="st0"/></symbol><symbol id="vmware" viewBox="0 0 552 552"><path fill="none" d="M-733.623 72.268c0 203.805-165.217 369.021-369.022 369.021s-369.021-165.216-369.021-369.021 165.216-369.021 369.021-369.021 369.022 165.216 369.022 369.02" style="fill:#7498bf;fill-opacity:0;fill-rule:nonzero;stroke:none" transform="translate(1040.934 225.866)scale(.69373)"/><path d="M27.448-19.152c-13.786 0-24.843 10.833-24.843 24.143v82.576h-30.44c-13.787 0-24.844 10.875-24.844 24.143v178.8c0 13.31 11.057 24.143 24.843 24.143h184.747c13.786 0 25.192-10.833 25.192-24.143v-29.392h85.376c13.772 0 24.842-10.875 24.842-24.143V58.176c0-13.282-11.07-23.793-24.842-23.793h-30.442V4.99c0-13.31-11.084-24.143-24.842-24.143zm0 13.646h184.747c6.032 0 10.847 4.647 10.847 10.497v29.392H82.732c-13.758 0-25.193 10.51-25.193 23.793v29.391H16.601V4.991c0-5.85 4.773-10.497 10.847-10.497M82.732 47.68h140.31v135.76c0 5.851-4.815 10.848-10.847 10.848h-30.092V111.71c0-13.268-11.406-24.143-25.192-24.143H71.535V58.176c0-5.836 5.165-10.497 11.197-10.497m154.305 0h30.442c6.046 0 10.847 4.66 10.847 10.497v178.798c0 5.836-4.801 10.497-10.847 10.497h-85.376v-39.538h30.092c13.758 0 24.842-11.183 24.842-24.493zm-264.873 53.534H2.605v82.227c0 13.31 11.057 24.493 24.843 24.493H57.54v29.041c0 13.268 11.435 24.143 25.193 24.143h85.375v29.392c0 5.836-5.122 10.497-11.196 10.497H-27.836c-6.116 0-10.847-4.661-10.847-10.497V111.71c0-5.822 4.73-10.497 10.847-10.497m44.437 0H57.54v93.074H27.45c-6.075 0-10.848-4.997-10.848-10.847zm54.934 0h85.376c6.074 0 11.196 4.675 11.196 10.497v82.577H71.535Zm0 106.72h96.572v39.538H82.732c-6.032 0-11.197-4.66-11.197-10.497z" style="fill:#fff;fill-opacity:1;fill-rule:nonzero;stroke:none" transform="translate(156.179 128.25)"/></symbol></svg>