<svg width="598.35" height="304" version="1.1" viewBox="0 0 598.35162 304.00421" xmlns="http://www.w3.org/2000/svg">
 <path d="m399.03 152c-0.0438 84.539-68.427 151.76-151.48 151.99-0.16264 7e-3 -0.34649 7e-3 -0.51619 7e-3h-95.035c-83.82 0-152-68.191-152-152-0.0071-83.813 68.186-152.01 152-152h52.476c13.916 0 21.274 16.607 11.8 26.799-12.073 12.99-22.416 27.827-30.428 44.131-2.7125 5.5211-8.2696 9.0715-14.421 9.0715h-18.508c-39.635 0-72.524 31.647-72.913 71.28-0.39244 40.024 32.058 72.715 71.994 72.715l95.028 7e-3c39.868 0 72.005-32.303 72.005-72.005-5e-3 -5.2291-0.61165-9.8946-1.253-13.371a16.037 16.037 0 0 1 4.0015 -13.826c7.192-7.752 17.539-12.804 29.348-12.804l29.776-7.1e-4c7.8079 0 14.412 5.6448 15.779 13.331a152.48 152.48 0 0 1 2.3511 26.671zm199.32-5e-3c7.1e-4 -83.808-68.179-152-152-152h-95.035c-0.16971 0-0.35356 0-0.51619 7e-3 -83.055 0.23051-151.44 67.454-151.48 151.99a152.45 152.45 0 0 0 2.3511 26.67c1.3676 7.6862 7.9726 13.331 15.779 13.331l29.776-7.1e-4c11.809 0 22.156-5.0523 29.348-12.804a16.037 16.037 0 0 0 4.0015 -13.826c-0.64135-3.4768-1.248-8.1423-1.253-13.371 0-39.701 32.137-72.005 72.005-72.005l95.028 7e-3c39.936 0 72.386 32.69 71.994 72.715-0.38891 39.633-33.278 71.281-72.913 71.28h-18.508c-6.1518 0-11.709 3.5504-14.421 9.0715-8.0115 16.304-18.354 31.142-30.428 44.131-9.4731 10.193-2.1157 26.799 11.8 26.799h52.476c83.813 8e-3 152.01-68.185 152-152z"/>
</svg>
