<?xml version="1.0" encoding="UTF-8" standalone="no"?>
<svg
   xmlns:dc="http://purl.org/dc/elements/1.1/"
   xmlns:cc="http://creativecommons.org/ns#"
   xmlns:rdf="http://www.w3.org/1999/02/22-rdf-syntax-ns#"
   xmlns:svg="http://www.w3.org/2000/svg"
   xmlns="http://www.w3.org/2000/svg"
   viewBox="0 0 560 560"
   height="560"
   width="560"
   id="svg901"
   version="1.1">
  <metadata
     id="metadata907">
    <rdf:RDF>
      <cc:Work
         rdf:about="">
        <dc:format>image/svg+xml</dc:format>
        <dc:type
           rdf:resource="http://purl.org/dc/dcmitype/StillImage" />
        <dc:title></dc:title>
      </cc:Work>
    </rdf:RDF>
  </metadata>
  <defs
     id="defs905" />
  <g
     id="g911">
    <path
       id="path915"
       d="M 104.3264,453.96393 C 95.770688,452.25518 87.476812,445.84786 83.395734,437.79424 81.180202,433.4221 80.332921,427.36484 74.504555,374.23079 55.355755,199.66154 52.000484,168.55838 52.005577,165.66663 c 0.01671,-9.48791 7.387299,-19.44209 16.126686,-21.77952 4.158477,-1.11222 4.648219,-1.59078 6.253551,-6.11069 C 78.060969,127.42878 87.247899,122 101.08368,122 c 6.4405,0 6.76083,-0.1152 7.68402,-2.76345 1.44369,-4.1414 5.87912,-8.94424 11.0877,-12.00616 L 124.5,104.5 h 33 33 l 5.25433,2.91129 c 5.20354,2.88314 9.10462,6.99028 11.37729,11.97824 l 1.17614,2.58134 130.09612,0.26456 L 468.5,122.5 l 4.09468,2.19109 c 6.40013,3.42474 10.10014,8.21873 12.7802,16.55891 0.31503,0.98035 1.56571,1.75966 2.84374,1.77196 3.57233,0.0344 9.97209,3.40782 13.4807,7.10593 4.17479,4.40027 6.30129,9.66404 6.29815,15.58999 -0.001,2.63017 -4.04595,41.68212 -8.98791,86.78212 -4.94196,45.1 -11.26529,103.15 -14.05184,129 -2.78655,25.85 -5.71997,49.32949 -6.5187,52.17664 -1.91681,6.83267 -9.46842,15.18734 -16.66891,18.44156 L 456.5,454.5 l -174,0.14874 c -95.7,0.0818 -175.87812,-0.22635 -178.1736,-0.68481 z"
       style="fill:#51c3c3" />
    <path
       id="path913"
       d="M 265.77114,379.38655 265.5,359.77309 l -5.65893,-1.75015 c -3.11242,-0.96259 -7.81364,-2.95444 -10.44718,-4.42635 l -4.78824,-2.6762 -13.79964,13.77323 -13.79964,13.77323 -9.50659,-9.46707 -9.50659,-9.46707 13.68633,-13.71258 13.68634,-13.71258 -3.58176,-7.80377 C 219.81414,320.0117 217.92325,315.2625 217.58212,313.75 L 216.9619,311 H 197.48095 178 V 297.5 284 h 19.46146 19.46145 l 1.12686,-4.25 c 0.61978,-2.3375 2.48704,-7.11894 4.14949,-10.62542 l 3.02262,-6.37543 -13.11094,-13.13798 C 204.89992,242.38528 199,236.03767 199,235.50538 c 0,-0.53229 4.15514,-5.14029 9.23364,-10.24 l 9.23365,-9.27219 13.64061,13.6145 13.6406,13.6145 6.37575,-3.02278 c 3.50666,-1.66253 8.28825,-3.52986 10.62575,-4.14964 L 266,234.92291 V 215.46146 196 h 13.5 13.5 v 19.46146 19.46145 l 4.22355,1.13729 c 2.32295,0.6255 7.07145,2.52586 10.55222,4.22302 l 6.32868,3.08574 13.71413,-13.68789 13.71413,-13.68788 9.46707,9.50659 9.46707,9.50659 -13.77323,13.79964 -13.77323,13.79964 2.6762,4.78824 c 1.47191,2.63354 3.46376,7.33476 4.42635,10.44718 l 1.75015,5.65893 19.61346,0.27114 L 381,284.04228 V 297.5 310.95772 l -19.54553,0.27114 -19.54553,0.27114 -2.36102,6.75902 c -1.29856,3.71747 -3.25406,8.27262 -4.34556,10.12258 l -1.98455,3.36355 13.3911,13.36353 C 353.97401,352.45862 360,358.93785 360,359.50696 360,360.82942 342.79169,378 341.46632,378 c -0.54676,0 -7.0077,-6.02599 -14.35764,-13.39109 l -13.36353,-13.3911 -3.36355,1.98455 c -1.84996,1.0915 -6.40511,3.047 -10.12258,4.34556 L 293.5,359.90894 293.22886,379.45447 292.95772,399 H 279.5 266.04228 Z m 24.81825,-57.37905 c 13.55301,-5.80961 19.65277,-22.81656 13.03489,-36.34301 -8.44536,-17.26169 -29.6221,-20.7971 -43.20604,-7.21317 -21.25313,21.25314 2.43251,55.4466 30.17115,43.55618 z M 74.37706,139.8647 c 1.364851,-6.82426 7.37602,-13.33398 14.522163,-15.7266 C 90.768796,123.51215 95.787275,123 100.0514,123 c 7.65687,0 7.76549,-0.036 8.76444,-2.90155 1.48105,-4.24855 8.08505,-11.1382 12.68416,-13.23279 3.60322,-1.64103 7.17423,-1.82174 36,-1.82174 28.8379,0 32.39526,0.18019 36,1.82342 5.88957,2.68479 10.00313,6.54419 12.39206,11.62642 l 2.11819,4.50624 129.74487,0.022 c 123.70778,0.0209 129.931,0.10734 133.74488,1.85688 6.53171,2.99628 11.2665,8.64741 12.87871,15.37116 l 0.65939,2.75 H 279.39405 73.75 l 0.62706,-3.1353 z"
       style="fill:#339c9c" />
  </g>
</svg>
