<?xml version="1.0" encoding="UTF-8" standalone="no"?>
<!-- Generator: Adobe Illustrator 16.0.0, SVG Export Plug-In . SVG Version: 6.00 Build 0)  -->

<svg
   xmlns:dc="http://purl.org/dc/elements/1.1/"
   xmlns:cc="http://creativecommons.org/ns#"
   xmlns:rdf="http://www.w3.org/1999/02/22-rdf-syntax-ns#"
   xmlns:svg="http://www.w3.org/2000/svg"
   xmlns="http://www.w3.org/2000/svg"
   xmlns:sodipodi="http://sodipodi.sourceforge.net/DTD/sodipodi-0.dtd"
   xmlns:inkscape="http://www.inkscape.org/namespaces/inkscape"
   version="1.1"
   id="Capa_1"
   x="0px"
   y="0px"
   width="702.42004"
   height="711.9978"
   viewBox="0 0 645.82035 654.62497"
   xml:space="preserve"
   sodipodi:docname="gears.svg"
   inkscape:version="0.92.2 5c3e80d, 2017-08-06"><metadata
     id="metadata44"><rdf:RDF><cc:Work
         rdf:about=""><dc:format>image/svg+xml</dc:format><dc:type
           rdf:resource="http://purl.org/dc/dcmitype/StillImage" /><dc:title></dc:title></cc:Work></rdf:RDF></metadata><defs
     id="defs42" /><sodipodi:namedview
     pagecolor="#ffffff"
     bordercolor="#666666"
     borderopacity="1"
     objecttolerance="10"
     gridtolerance="10"
     guidetolerance="10"
     inkscape:pageopacity="0"
     inkscape:pageshadow="2"
     inkscape:window-width="776"
     inkscape:window-height="480"
     id="namedview40"
     showgrid="false"
     fit-margin-top="100"
     fit-margin-left="100"
     fit-margin-bottom="100"
     fit-margin-right="100"
     inkscape:zoom="0.4609375"
     inkscape:cx="351.21003"
     inkscape:cy="355.99856"
     inkscape:window-x="797"
     inkscape:window-y="314"
     inkscape:window-maximized="0"
     inkscape:current-layer="Capa_1" /><g
     id="g7"
     transform="translate(87.538187,91.941552)"><g
       id="iconos_2_"><path
         d="m 65.317,188.515 -29.328,44.379 19.202,19.145 43.375,-28.765 c 7.306,4.562 15.271,8.549 23.734,10.997 l 10.566,52.604 h 27.072 l 10.308,-51.331 c 8.616,-1.989 16.792,-5.279 24.337,-9.438 l 44.379,29.356 19.145,-19.191 -28.765,-43.366 c 4.562,-7.306 7.718,-15.271 10.165,-23.734 l 51.771,-10.567 v -27.071 l -50.5,-10.309 c -1.988,-8.616 -4.867,-16.792 -9.017,-24.327 l 29.568,-44.38 -19.088,-19.144 -43.317,28.764 c -7.306,-4.562 -15.243,-7.812 -23.706,-10.27 L 164.671,0 H 137.6 l -10.309,50.595 c -8.616,1.989 -16.792,4.915 -24.336,9.075 L 58.575,30.131 39.431,49.228 68.195,92.546 c -4.562,7.315 -8.645,15.243 -11.093,23.706 L 4.404,126.799 v 27.071 l 51.427,10.309 c 1.989,8.615 5.326,16.791 9.486,24.336 z m 83.452,-86.626 c 22.539,0 40.812,18.273 40.812,40.812 0,22.539 -18.274,40.813 -40.812,40.813 -22.539,0 -40.813,-18.274 -40.813,-40.813 0,-22.539 18.274,-40.812 40.813,-40.812 z"
         id="path2"
         inkscape:connector-curvature="0"
         style="fill:#ffffff" /><path
         d="m 263.834,202.361 9.228,51.188 c -7.268,5.029 -13.722,10.939 -19.201,17.585 l -52.106,-10.996 -10.729,24.853 42.726,29.682 c -1.549,8.482 -1.979,17.203 -1.128,25.972 l -44.667,29.09 9.983,25.158 51.169,-9.218 c 5.029,7.268 10.93,13.731 17.575,19.201 l -11.007,52.106 24.854,10.729 29.682,-42.725 c 8.482,1.549 17.184,1.95 25.962,1.109 l 29.08,44.647 25.159,-9.983 -9.209,-51.15 c 7.268,-5.029 13.731,-10.92 19.211,-17.566 l 52.116,11.007 10.729,-24.853 -42.725,-29.673 c 1.549,-8.481 1.979,-17.193 1.138,-25.972 l 44.666,-29.089 -9.983,-25.159 -51.169,9.218 c -5.029,-7.267 -10.93,-13.731 -17.575,-19.201 l 11.006,-52.106 -24.853,-10.729 -29.682,42.726 c -8.482,-1.55 -17.203,-1.999 -25.981,-1.157 l -29.099,-44.686 z m 48.252,91.313 c 20.952,-8.319 44.677,1.932 52.996,22.883 8.319,20.952 -1.932,44.677 -22.884,52.996 -20.951,8.319 -44.676,-1.932 -52.995,-22.884 -8.309,-20.961 1.932,-44.686 22.883,-52.995 z"
         id="path4"
         inkscape:connector-curvature="0"
         style="fill:#ffffff" /></g></g><g
     id="g9"
     transform="translate(87.538187,91.941552)" /><g
     id="g11"
     transform="translate(87.538187,91.941552)" /><g
     id="g13"
     transform="translate(87.538187,91.941552)" /><g
     id="g15"
     transform="translate(87.538187,91.941552)" /><g
     id="g17"
     transform="translate(87.538187,91.941552)" /><g
     id="g19"
     transform="translate(87.538187,91.941552)" /><g
     id="g21"
     transform="translate(87.538187,91.941552)" /><g
     id="g23"
     transform="translate(87.538187,91.941552)" /><g
     id="g25"
     transform="translate(87.538187,91.941552)" /><g
     id="g27"
     transform="translate(87.538187,91.941552)" /><g
     id="g29"
     transform="translate(87.538187,91.941552)" /><g
     id="g31"
     transform="translate(87.538187,91.941552)" /><g
     id="g33"
     transform="translate(87.538187,91.941552)" /><g
     id="g35"
     transform="translate(87.538187,91.941552)" /><g
     id="g37"
     transform="translate(87.538187,91.941552)" /></svg>