<?xml version="1.0" encoding="UTF-8" standalone="no"?>
<svg
   xmlns:dc="http://purl.org/dc/elements/1.1/"
   xmlns:cc="http://creativecommons.org/ns#"
   xmlns:rdf="http://www.w3.org/1999/02/22-rdf-syntax-ns#"
   xmlns:svg="http://www.w3.org/2000/svg"
   xmlns="http://www.w3.org/2000/svg"
   viewBox="0 0 1480 1480"
   height="1480"
   width="1480"
   id="svg4963"
   version="1.1">
  <metadata
     id="metadata4969">
    <rdf:RDF>
      <cc:Work
         rdf:about="">
        <dc:format>image/svg+xml</dc:format>
        <dc:type
           rdf:resource="http://purl.org/dc/dcmitype/StillImage" />
        <dc:title></dc:title>
      </cc:Work>
    </rdf:RDF>
  </metadata>
  <defs
     id="defs4967" />
  <path
     id="path4973"
     d="m 327.33333,1154.5851 c -5.86666,-0.5783 -16.86553,-2.3428 -24.4419,-3.9211 -51.16564,-10.6588 -93.2365,-32.6663 -129.9893,-67.9984 -23.74372,-22.8258 -38.80596,-43.1004 -53.48901,-71.9989 -65.413649,-128.74438 -14.75824,-286.45649 113.32127,-352.81795 9.49608,-4.92018 17.47108,-9.10442 17.72221,-9.29831 0.25112,-0.19388 1.90957,-6.24705 3.68544,-13.45148 7.77515,-31.54256 16.03268,-49.62108 33.69315,-73.76563 22.8242,-31.20417 57.08798,-55.89972 94.88546,-68.38849 43.6015,-14.40649 95.26472,-11.90516 137.27935,6.64655 6.78799,2.99725 7.43249,3.0689 8.66667,0.96362 0.73333,-1.25093 6.53738,-10.13756 12.89789,-19.74805 44.54024,-67.29861 110.6748,-117.26669 187.76877,-141.869 20.46592,-6.53109 35.52834,-9.76911 66,-14.18821 22.58944,-3.276 72.84214,-1.89983 99.88116,2.73525 110.81611,18.99632 208.19681,91.56728 257.43521,191.84833 21.2906,43.36158 31.5112,80.60271 36.4095,132.66667 l 0.9408,10 11.3333,2.96035 c 62.8479,16.41629 114.9033,53.87952 149.6586,107.70632 30.1196,46.64726 44.6782,108.90088 37.7508,161.42413 -7.0096,53.14591 -25.255,95.2167 -58.3632,134.5759 -32.6608,38.8273 -81.755,69.0712 -131.0462,80.7295 -29.4049,6.9548 -5.8209,6.618 -449.65786,6.4221 -226.42149,-0.1 -416.47544,-0.6548 -422.34211,-1.2332 z"
     style="display:inline;fill:#46aef7;stroke-width:1.33333337" />
</svg>
