<?xml version="1.0" encoding="UTF-8" standalone="no"?>
<!-- Generator: Adobe Illustrator 18.1.1, SVG Export Plug-In . SVG Version: 6.00 Build 0)  -->

<svg
   xmlns:dc="http://purl.org/dc/elements/1.1/"
   xmlns:cc="http://creativecommons.org/ns#"
   xmlns:rdf="http://www.w3.org/1999/02/22-rdf-syntax-ns#"
   xmlns:svg="http://www.w3.org/2000/svg"
   xmlns="http://www.w3.org/2000/svg"
   xmlns:sodipodi="http://sodipodi.sourceforge.net/DTD/sodipodi-0.dtd"
   xmlns:inkscape="http://www.inkscape.org/namespaces/inkscape"
   version="1.1"
   id="Capa_1"
   x="0px"
   y="0px"
   viewBox="0 0 664.9482 510.87919"
   xml:space="preserve"
   width="712"
   height="547.02905"
   sodipodi:docname="icloud.svg"
   inkscape:version="0.92.2 5c3e80d, 2017-08-06"><metadata
     id="metadata40"><rdf:RDF><cc:Work
         rdf:about=""><dc:format>image/svg+xml</dc:format><dc:type
           rdf:resource="http://purl.org/dc/dcmitype/StillImage" /><dc:title></dc:title></cc:Work></rdf:RDF></metadata><defs
     id="defs38" /><sodipodi:namedview
     pagecolor="#ffffff"
     bordercolor="#666666"
     borderopacity="1"
     objecttolerance="10"
     gridtolerance="10"
     guidetolerance="10"
     inkscape:pageopacity="0"
     inkscape:pageshadow="2"
     inkscape:window-width="776"
     inkscape:window-height="480"
     id="namedview36"
     showgrid="false"
     fit-margin-top="100"
     fit-margin-left="100"
     fit-margin-bottom="100"
     fit-margin-right="100"
     inkscape:zoom="0.4609375"
     inkscape:cx="356"
     inkscape:cy="273.51507"
     inkscape:window-x="595"
     inkscape:window-y="133"
     inkscape:window-maximized="0"
     inkscape:current-layer="Capa_1" /><g
     id="g3"
     transform="translate(93.391602,16.356602)"><path
       id="MobileMe_3_"
       d="m 478.165,306.434 c 0,52.259 -42.019,94.697 -93.86,94.697 H 93.86 C 42.039,401.13 0,358.693 0,306.434 c 0,-46.88 34.288,-86.209 79.096,-93.302 -0.598,-3.287 -0.877,-6.734 -0.877,-10.241 0,-33.133 26.618,-59.83 59.512,-59.83 14.684,0 28.032,5.24 38.353,14.106 18.569,-41.839 42.198,-80.132 108.703,-80.132 80.431,0 118.665,62.62 118.665,128.646 0,2.809 -0.1,5.579 -0.379,8.169 42.875,8.845 75.092,47.078 75.092,92.584 z"
       inkscape:connector-curvature="0"
       style="fill:#ffffff" /></g><g
     id="g5"
     transform="translate(93.391602,16.356602)" /><g
     id="g7"
     transform="translate(93.391602,16.356602)" /><g
     id="g9"
     transform="translate(93.391602,16.356602)" /><g
     id="g11"
     transform="translate(93.391602,16.356602)" /><g
     id="g13"
     transform="translate(93.391602,16.356602)" /><g
     id="g15"
     transform="translate(93.391602,16.356602)" /><g
     id="g17"
     transform="translate(93.391602,16.356602)" /><g
     id="g19"
     transform="translate(93.391602,16.356602)" /><g
     id="g21"
     transform="translate(93.391602,16.356602)" /><g
     id="g23"
     transform="translate(93.391602,16.356602)" /><g
     id="g25"
     transform="translate(93.391602,16.356602)" /><g
     id="g27"
     transform="translate(93.391602,16.356602)" /><g
     id="g29"
     transform="translate(93.391602,16.356602)" /><g
     id="g31"
     transform="translate(93.391602,16.356602)" /><g
     id="g33"
     transform="translate(93.391602,16.356602)" /></svg>