<?xml version="1.0" encoding="UTF-8" standalone="no"?>
<svg
   xmlns:dc="http://purl.org/dc/elements/1.1/"
   xmlns:cc="http://creativecommons.org/ns#"
   xmlns:rdf="http://www.w3.org/1999/02/22-rdf-syntax-ns#"
   xmlns:svg="http://www.w3.org/2000/svg"
   xmlns="http://www.w3.org/2000/svg"
   viewBox="0 0 459 459"
   height="459"
   width="459"
   id="svg5201"
   version="1.1">
  <metadata
     id="metadata5207">
    <rdf:RDF>
      <cc:Work
         rdf:about="">
        <dc:format>image/svg+xml</dc:format>
        <dc:type
           rdf:resource="http://purl.org/dc/dcmitype/StillImage" />
        <dc:title></dc:title>
      </cc:Work>
    </rdf:RDF>
  </metadata>
  <defs
     id="defs5205" />
  <g
     id="g5211">
    <path
       id="path5215"
       d="M 3.6684534,327.25 C 6.8372934,322.96042 17.758202,309.48373 20,307.09644 c 0.825,-0.87854 3.592957,-4.31757 6.151015,-7.6423 2.558058,-3.32472 5.417876,-6.68139 6.355152,-7.45926 0.937276,-0.77787 3.464987,-3.90744 5.617136,-6.95459 3.656927,-5.17773 6.943429,-9.27051 17.228278,-21.45489 2.28163,-2.70303 4.800266,-5.85303 5.596968,-7 1.497724,-2.15619 15.107137,-18.69942 16.112083,-19.5854 0.311925,-0.275 3.013389,-3.45287 6.003252,-7.06193 16.181016,-19.53209 19.280196,-22.98767 19.953766,-22.24841 0.40609,0.44569 7.39466,8.6625 15.53016,18.25958 20.94465,24.70748 19.40918,23.14414 21.58694,21.97864 2.33246,-1.24829 13.25516,-12.24326 22.98103,-23.13308 4.06132,-4.54737 9.225,-10.07398 11.47484,-12.28137 12.46784,-12.23259 19.26746,-18.51301 20.03987,-18.5097 0.47823,0.002 3.06755,2.72339 5.75405,6.04742 2.68649,3.32402 5.46974,5.90984 6.185,5.74626 0.71526,-0.16357 10.66722,-9.5363 22.11547,-20.82828 18.36412,-18.11344 27.9217,-26.8003 42.62953,-38.74584 2.42765,-1.9717 4.29034,-2.86261 4.67701,-2.23696 0.35343,0.57185 5.56241,6.11913 11.57552,12.32729 19.56504,20.19965 31.39317,34.56155 42.77361,51.93638 2.07143,3.1625 4.30467,5.74312 4.96277,5.73471 1.26858,-0.0162 5.98126,-3.20819 17.24692,-11.68164 8.10801,-6.09842 7.73376,-6.22563 15.18504,5.16153 2.53202,3.86947 6.21488,9.0427 8.18413,11.49606 1.96925,2.45336 4.03046,5.20737 4.58046,6.12002 1.10964,1.8413 7.28648,11.37178 18.25,28.15861 3.9875,6.10547 7.25,11.23617 7.25,11.40155 0,1.28868 6.67613,9.35916 7.74216,9.35916 1.72444,0 7.55382,-2.96304 8.39604,-4.26765 0.92113,-1.42685 2.37917,-0.23466 4.28233,3.50152 0.91505,1.79637 2.60373,4.84113 3.75262,6.76613 1.14889,1.925 3.71743,6.56475 5.70787,10.31054 1.99044,3.7458 5.04522,9.3708 6.78841,12.5 2.87715,5.16479 8.19901,15.18388 12.47789,23.49122 l 1.64732,3.19824 -12.64732,0.636 c -6.95603,0.34979 -109.53272,0.68729 -227.94821,0.75 L 0.89821744,331 Z"
       style="fill:#fca801" />
    <path
       id="path5213"
       d="M 3.6684534,327.25 C 6.8372934,322.96042 17.758202,309.48373 20,307.09644 c 0.825,-0.87854 3.592957,-4.31757 6.151015,-7.6423 2.558058,-3.32472 5.417876,-6.68139 6.355152,-7.45926 0.937276,-0.77787 3.464987,-3.90744 5.617136,-6.95459 3.656927,-5.17773 6.943429,-9.27051 17.228278,-21.45489 2.28163,-2.70303 4.800266,-5.85303 5.596968,-7 1.497724,-2.15619 15.107137,-18.69942 16.112083,-19.5854 0.311925,-0.275 3.013389,-3.45287 6.003252,-7.06193 16.181016,-19.53209 19.280196,-22.98767 19.953766,-22.24841 0.40609,0.44569 7.39466,8.6625 15.53016,18.25958 20.94465,24.70748 19.40918,23.14414 21.58694,21.97864 2.33246,-1.24829 13.25516,-12.24326 22.98103,-23.13308 4.06132,-4.54737 9.225,-10.07398 11.47484,-12.28137 12.46784,-12.23259 19.26746,-18.51301 20.03987,-18.5097 0.47823,0.002 3.06755,2.72339 5.75405,6.04742 2.68649,3.32402 5.46974,5.90984 6.185,5.74626 0.71526,-0.16357 10.66722,-9.5363 22.11547,-20.82828 18.36412,-18.11344 27.9217,-26.8003 42.62953,-38.74584 2.42765,-1.9717 4.29034,-2.86261 4.67701,-2.23696 0.35343,0.57185 5.56241,6.11913 11.57552,12.32729 19.56504,20.19965 31.39317,34.56155 42.77361,51.93638 2.07143,3.1625 4.30467,5.74312 4.96277,5.73471 1.26858,-0.0162 5.98126,-3.20819 17.24692,-11.68164 8.10801,-6.09842 7.73376,-6.22563 15.18504,5.16153 2.53202,3.86947 6.21488,9.0427 8.18413,11.49606 1.96925,2.45336 4.03046,5.20737 4.58046,6.12002 1.10964,1.8413 7.28648,11.37178 18.25,28.15861 3.9875,6.10547 7.25,11.23617 7.25,11.40155 0,1.28868 6.67613,9.35916 7.74216,9.35916 1.72444,0 7.55382,-2.96304 8.39604,-4.26765 0.92113,-1.42685 2.37917,-0.23466 4.28233,3.50152 0.91505,1.79637 2.60373,4.84113 3.75262,6.76613 1.14889,1.925 3.71743,6.56475 5.70787,10.31054 1.99044,3.7458 5.04522,9.3708 6.78841,12.5 2.88979,5.18748 8.29164,15.35855 12.47617,23.49122 l 1.6456,3.19824 -10.078,0.287 c -5.54289,0.15785 -10.62982,0.0752 -11.30429,-0.18358 -0.67446,-0.25881 -6.91911,-8.82546 -13.87699,-19.037 C 414.57403,300.35489 408.62355,292 408.30864,292 c -0.31492,0 -1.97576,0.86722 -3.69077,1.92715 l -3.1182,1.92716 -15.99984,-23.91736 c -8.7999,-13.15454 -16.38954,-23.92176 -16.86585,-23.92715 -1.08882,-0.0123 -9.93674,6.44515 -11.63529,8.49178 -1.06477,1.28297 0.17275,3.71114 7.77836,15.26207 4.97453,7.55499 15.41433,23.86135 23.19958,36.23635 l 14.15499,22.5 -13.81581,0.29034 c -11.71123,0.24612 -13.96814,0.0498 -14.81581,-1.28872 -5.67996,-8.96908 -60.64623,-85.51871 -64.47887,-89.7975 -0.39209,-0.43773 -4.68725,3.61227 -9.54479,9 -4.85755,5.38773 -9.17301,9.93625 -9.58992,10.10781 -0.41691,0.17157 -4.47684,-4.41191 -9.02206,-10.18551 -4.54522,-5.77359 -8.60783,-10.28496 -9.02802,-10.02527 -0.64739,0.4001 -28.30999,33.18537 -31.37244,37.18209 -0.80079,1.0451 -5.34287,-3.76899 -20,-21.19772 -10.43014,-12.40245 -19.21523,-22.55792 -19.52241,-22.56771 -0.30718,-0.01 -8.79668,8.29714 -18.86556,18.45986 -11.98376,12.09544 -18.11389,18.98103 -17.74782,19.935 0.30758,0.80153 10.19166,13.54875 21.96462,28.32715 11.77297,14.7784 22.20007,28.08265 23.17134,29.565 L 211.23002,331 H 196.31971 181.40939 L 161.4547,308.95736 141.5,286.91473 l -3,3.56415 -3,3.56415 L 120.8688,278.78007 106.23759,263.51711 83.996198,297.25856 61.754803,331 H 31.32651 0.89821744 Z"
       style="fill:#404349" />
  </g>
</svg>
