<?xml version="1.0" encoding="UTF-8" standalone="no"?>
<!-- Generator: Adobe Illustrator 16.0.0, SVG Export Plug-In . SVG Version: 6.00 Build 0)  -->

<svg
   xmlns:dc="http://purl.org/dc/elements/1.1/"
   xmlns:cc="http://creativecommons.org/ns#"
   xmlns:rdf="http://www.w3.org/1999/02/22-rdf-syntax-ns#"
   xmlns:svg="http://www.w3.org/2000/svg"
   xmlns="http://www.w3.org/2000/svg"
   xmlns:sodipodi="http://sodipodi.sourceforge.net/DTD/sodipodi-0.dtd"
   xmlns:inkscape="http://www.inkscape.org/namespaces/inkscape"
   version="1.1"
   id="Capa_1"
   x="0px"
   y="0px"
   width="678.539"
   height="715.07001"
   viewBox="0 0 678.53898 715.06998"
   xml:space="preserve"
   sodipodi:docname="music.svg"
   inkscape:version="0.92.2 5c3e80d, 2017-08-06"><metadata
     id="metadata1078"><rdf:RDF><cc:Work
         rdf:about=""><dc:format>image/svg+xml</dc:format><dc:type
           rdf:resource="http://purl.org/dc/dcmitype/StillImage" /><dc:title></dc:title></cc:Work></rdf:RDF></metadata><defs
     id="defs1076" /><sodipodi:namedview
     pagecolor="#ffffff"
     bordercolor="#666666"
     borderopacity="1"
     objecttolerance="10"
     gridtolerance="10"
     guidetolerance="10"
     inkscape:pageopacity="0"
     inkscape:pageshadow="2"
     inkscape:window-width="1210"
     inkscape:window-height="740"
     id="namedview1074"
     showgrid="false"
     fit-margin-top="120"
     fit-margin-left="120"
     fit-margin-bottom="120"
     fit-margin-right="120"
     inkscape:zoom="0.70253581"
     inkscape:cx="395.8709"
     inkscape:cy="393.75434"
     inkscape:window-x="306"
     inkscape:window-y="82"
     inkscape:window-maximized="0"
     inkscape:current-layer="Capa_1" /><g
     id="g1041"
     transform="translate(101.734,120)"><path fill="#F4F4F4"
       d="M 448.808,7.994 C 443.483,2.664 437.009,0 429.397,0 c -3.046,0 -5.715,0.383 -7.994,1.143 L 183.861,74.232 c -5.708,1.903 -10.373,5.282 -13.99,10.135 -3.615,4.856 -5.424,10.232 -5.424,16.134 v 276.087 c -16.562,-7.426 -34.833,-11.139 -54.818,-11.139 -8.564,0 -17.749,0.999 -27.55,2.994 -9.806,1.995 -19.657,5.041 -29.552,9.134 -9.9,4.093 -18.083,9.853 -24.556,17.271 -6.471,7.423 -9.705,15.899 -9.705,25.413 0,9.521 3.234,17.987 9.705,25.413 6.473,7.419 14.655,13.179 24.556,17.271 9.899,4.093 19.75,7.136 29.552,9.134 9.801,1.995 18.986,2.991 27.55,2.991 8.564,0 17.746,-0.996 27.55,-2.991 9.806,-1.998 19.653,-5.041 29.552,-9.134 9.896,-4.093 18.079,-9.853 24.55,-17.271 6.477,-7.426 9.71,-15.893 9.71,-25.413 v -202.42 l 219.271,-67.665 v 153.317 c -16.566,-7.422 -34.834,-11.139 -54.819,-11.139 -8.565,0 -17.751,0.996 -27.552,2.994 -9.805,1.995 -19.65,5.041 -29.551,9.134 -9.896,4.093 -18.082,9.853 -24.558,17.278 -6.468,7.416 -9.712,15.89 -9.712,25.406 0,9.521 3.244,17.987 9.712,25.413 6.476,7.423 14.661,13.183 24.558,17.271 9.897,4.093 19.746,7.139 29.551,9.138 9.801,1.998 18.986,2.99 27.552,2.99 8.562,0 17.747,-0.992 27.548,-2.99 9.802,-1.999 19.65,-5.045 29.554,-9.138 9.897,-4.089 18.076,-9.849 24.551,-17.271 6.479,-7.426 9.709,-15.893 9.709,-25.413 V 27.401 c -0.003,-7.612 -2.659,-14.08 -7.997,-19.407 z"
       id="path1039"
       inkscape:connector-curvature="0" /></g><g
     id="g1043"
     transform="translate(101.734,120)" /><g
     id="g1045"
     transform="translate(101.734,120)" /><g
     id="g1047"
     transform="translate(101.734,120)" /><g
     id="g1049"
     transform="translate(101.734,120)" /><g
     id="g1051"
     transform="translate(101.734,120)" /><g
     id="g1053"
     transform="translate(101.734,120)" /><g
     id="g1055"
     transform="translate(101.734,120)" /><g
     id="g1057"
     transform="translate(101.734,120)" /><g
     id="g1059"
     transform="translate(101.734,120)" /><g
     id="g1061"
     transform="translate(101.734,120)" /><g
     id="g1063"
     transform="translate(101.734,120)" /><g
     id="g1065"
     transform="translate(101.734,120)" /><g
     id="g1067"
     transform="translate(101.734,120)" /><g
     id="g1069"
     transform="translate(101.734,120)" /><g
     id="g1071"
     transform="translate(101.734,120)" /></svg>