<?xml version="1.0" encoding="UTF-8" standalone="no"?>
<!-- Generator: Adobe Illustrator 19.0.0, SVG Export Plug-In . SVG Version: 6.00 Build 0)  -->

<svg
   xmlns:dc="http://purl.org/dc/elements/1.1/"
   xmlns:cc="http://creativecommons.org/ns#"
   xmlns:rdf="http://www.w3.org/1999/02/22-rdf-syntax-ns#"
   xmlns:svg="http://www.w3.org/2000/svg"
   xmlns="http://www.w3.org/2000/svg"
   xmlns:sodipodi="http://sodipodi.sourceforge.net/DTD/sodipodi-0.dtd"
   xmlns:inkscape="http://www.inkscape.org/namespaces/inkscape"
   version="1.1"
   id="Layer_1"
   x="0px"
   y="0px"
   viewBox="0 0 674.13201 507.73098"
   xml:space="preserve"
   sodipodi:docname="puzzle.svg"
   width="674.13202"
   height="507.73099"
   inkscape:version="0.92.2 5c3e80d, 2017-08-06"><metadata
     id="metadata43"><rdf:RDF><cc:Work
         rdf:about=""><dc:format>image/svg+xml</dc:format><dc:type
           rdf:resource="http://purl.org/dc/dcmitype/StillImage" /><dc:title></dc:title></cc:Work></rdf:RDF></metadata><defs
     id="defs41" /><sodipodi:namedview
     pagecolor="#ffffff"
     bordercolor="#666666"
     borderopacity="1"
     objecttolerance="10"
     gridtolerance="10"
     guidetolerance="10"
     inkscape:pageopacity="0"
     inkscape:pageshadow="2"
     inkscape:window-width="1227"
     inkscape:window-height="778"
     id="namedview39"
     showgrid="false"
     fit-margin-left="80"
     fit-margin-top="80"
     fit-margin-bottom="80"
     fit-margin-right="80"
     inkscape:zoom="0.4590234"
     inkscape:cx="337.0655"
     inkscape:cy="63.871177"
     inkscape:window-x="295"
     inkscape:window-y="57"
     inkscape:window-maximized="0"
     inkscape:current-layer="Layer_1" /><g
     id="g6"
     transform="translate(79.998,-3.202)"><g
       id="g4"><path fill="#f4f4f4"
         d="m 460.801,192.001 c -17.066,0 -25.6,6.4 -34.133,12.8 -4.267,2.133 -10.667,2.133 -12.8,-2.133 -2.133,-2.133 -2.133,-4.267 -2.133,-8.533 l 8.533,-98.133 c 0,-2.133 0,-6.4 -2.133,-8.533 -2.133,-2.133 -4.267,-4.267 -8.533,-4.267 h -96 c -8.533,0 -14.934,4.267 -19.2,10.667 -4.267,6.4 -4.267,14.934 0,21.333 4.267,6.4 6.4,10.667 6.4,21.333 0,17.066 -19.2,32 -42.667,32 -23.467,0 -42.667,-14.934 -42.667,-32 0,-8.533 2.133,-14.934 6.4,-21.333 4.267,-6.4 4.267,-14.934 0,-21.333 -4.267,-6.399 -10.667,-10.667 -19.2,-10.667 h -96 c -2.133,0 -6.4,2.133 -8.533,4.267 -2.133,2.133 -2.133,4.267 -2.133,8.533 l 8.533,98.133 c 0,4.267 -2.133,6.4 -2.133,8.533 -4.267,4.267 -8.533,6.4 -14.934,2.133 -8.533,-6.4 -17.066,-10.667 -34.133,-10.667 -29.867,0 -53.333,27.733 -53.333,64 0,36.267 23.467,64 53.333,64 17.066,0 25.6,-6.4 34.133,-12.8 4.267,-2.133 10.667,-2.133 12.8,2.133 2.133,2.133 2.133,4.267 2.133,8.533 l -8.533,98.133 c 0,2.133 0,6.4 2.133,8.533 2.133,2.133 4.267,4.267 8.533,4.267 h 96 c 8.533,0 14.934,-4.267 19.2,-10.667 4.267,-6.4 4.267,-14.934 0,-21.333 -4.267,-6.4 -6.4,-10.667 -6.4,-21.333 0,-17.066 19.2,-32 42.667,-32 23.467,0 42.667,14.934 42.667,32 0,8.533 -2.133,14.934 -6.4,21.333 -4.267,6.4 -4.267,14.934 0,21.333 4.267,6.399 10.667,10.667 19.2,10.667 h 96 c 2.133,0 6.4,-2.133 8.533,-4.267 2.133,-2.133 2.133,-4.267 2.133,-8.533 L 409.601,320 c 0,-4.267 2.133,-6.4 2.133,-8.533 4.267,-4.267 8.533,-6.4 14.934,-2.133 8.533,6.4 17.066,10.667 34.133,10.667 29.867,0 53.333,-27.733 53.333,-64 10e-4,-36.267 -23.466,-64 -53.333,-64 z"
         id="path2"
         inkscape:connector-curvature="0" /></g></g><g
     id="g8"
     transform="translate(79.998,-3.202)" /><g
     id="g10"
     transform="translate(79.998,-3.202)" /><g
     id="g12"
     transform="translate(79.998,-3.202)" /><g
     id="g14"
     transform="translate(79.998,-3.202)" /><g
     id="g16"
     transform="translate(79.998,-3.202)" /><g
     id="g18"
     transform="translate(79.998,-3.202)" /><g
     id="g20"
     transform="translate(79.998,-3.202)" /><g
     id="g22"
     transform="translate(79.998,-3.202)" /><g
     id="g24"
     transform="translate(79.998,-3.202)" /><g
     id="g26"
     transform="translate(79.998,-3.202)" /><g
     id="g28"
     transform="translate(79.998,-3.202)" /><g
     id="g30"
     transform="translate(79.998,-3.202)" /><g
     id="g32"
     transform="translate(79.998,-3.202)" /><g
     id="g34"
     transform="translate(79.998,-3.202)" /><g
     id="g36"
     transform="translate(79.998,-3.202)" /></svg>