<?xml version="1.0" encoding="UTF-8" standalone="no"?>
<svg
   xmlns:dc="http://purl.org/dc/elements/1.1/"
   xmlns:cc="http://creativecommons.org/ns#"
   xmlns:rdf="http://www.w3.org/1999/02/22-rdf-syntax-ns#"
   xmlns:svg="http://www.w3.org/2000/svg"
   xmlns="http://www.w3.org/2000/svg"
   viewBox="0 0 400 400"
   height="400"
   width="400"
   id="svg92"
   version="1.1">
  <metadata
     id="metadata98">
    <rdf:RDF>
      <cc:Work
         rdf:about="">
        <dc:format>image/svg+xml</dc:format>
        <dc:type
           rdf:resource="http://purl.org/dc/dcmitype/StillImage" />
        <dc:title></dc:title>
      </cc:Work>
    </rdf:RDF>
  </metadata>
  <defs
     id="defs96" />
  <g
     id="g135">
    <path
       id="path139"
       d="m 73.333333,353.41983 c -11.021049,-3.3646 -18.80875,-9.83212 -24.186642,-20.0865 l -3.146691,-6 v -100 -100 l 2.936269,-5.48862 c 4.711367,-8.80674 9.34675,-13.46088 17.26507,-17.33495 6.160372,-3.01399 9.696814,-3.72904 20.938794,-4.23373 l 13.526537,-0.607243 0.0252,-10.834394 c 0.0372,-15.996114 2.40583,-22.679725 11.23741,-31.709078 12.19598,-12.469095 6.51905,-11.920198 118.86237,-11.492691 L 327.33333,46 l 7.1103,3.9386 c 7.76674,4.302235 12.10809,8.805345 16.6201,17.23944 L 354,72.666667 v 100.000003 100 L 349.86363,280 c -7.7095,13.66811 -20.13815,20 -39.25728,20 h -10.24299 l -0.75307,12.33333 c -0.41417,6.78334 -1.52514,14.67638 -2.46882,17.54008 -2.68904,8.16019 -13.29266,18.82603 -21.92842,22.05708 -7.13654,2.67012 -9.62133,2.73342 -102.92973,2.62158 -52.58916,-0.063 -97.116653,-0.57255 -98.949987,-1.13224 z M 243.72608,209.42823 c -0.37125,-35.20095 -0.54316,-37.43975 -3.1418,-40.91762 -1.51197,-2.02354 -4.40468,-4.91625 -6.42823,-6.42822 -3.47786,-2.59864 -5.71666,-2.77055 -40.91761,-3.1418 L 156,158.54785 v 33.22607 c 0,18.27435 0.36968,35.07449 0.82152,37.33365 1.12012,5.60063 9.09543,14.5937 14.27005,16.09112 2.33298,0.67511 19.7185,1.28159 38.63451,1.34772 l 34.39273,0.12026 z"
       style="fill:#5386b6;stroke-width:1.33333337" />
    <path
       id="path137"
       d="m 73.333333,353.41983 c -11.021049,-3.3646 -18.80875,-9.83212 -24.186642,-20.0865 l -3.146691,-6 v -100 -100 l 2.936269,-5.48862 c 4.732474,-8.84619 9.353572,-13.46331 17.45827,-17.44326 L 74,100.66667 h 98.66667 98.66666 L 278,104.21428 c 8.49381,4.51991 14.38311,10.68457 18.26504,19.11905 3.00275,6.52425 3.07725,7.73978 3.48765,56.89986 0.46752,56.00149 0.61188,54.96532 -8.64246,62.03122 -4.81342,3.67515 -5.23314,3.74246 -25.94155,4.15984 l -21.04896,0.42427 -0.3932,-37.32937 c -0.37173,-35.29248 -0.54319,-37.53012 -3.14224,-41.00854 -1.51197,-2.02354 -4.40523,-4.91625 -6.42945,-6.42822 -3.55546,-2.65572 -5.54451,-2.76295 -58.58428,-3.15839 -36.2451,-0.27021 -56.56108,0.0752 -59.78022,1.01648 -6.08888,1.78033 -12.55265,8.98733 -14.48,16.14495 -0.97521,3.62166 -1.329994,20.76009 -1.0561,51.0175 0.45625,50.40372 0.0618,48.00594 9.74418,59.2398 2.69068,3.12183 7.69176,7.32183 11.11353,9.33334 l 6.22139,3.65726 86.51304,0.37094 86.51304,0.37094 -0.75108,12.29572 c -0.41309,6.76266 -1.52318,14.63878 -2.46686,17.50248 -2.68904,8.16019 -13.29266,18.82603 -21.92842,22.05708 -7.13654,2.67012 -9.62133,2.73342 -102.92973,2.62158 -52.58916,-0.063 -97.116653,-0.57255 -98.949987,-1.13224 z"
       style="fill:#fd7d13;stroke-width:1.33333337" />
  </g>
</svg>
