<?xml version="1.0" encoding="UTF-8" standalone="no"?>
<!-- Generated by IcoMoon.io -->

<svg
   xmlns:dc="http://purl.org/dc/elements/1.1/"
   xmlns:cc="http://creativecommons.org/ns#"
   xmlns:rdf="http://www.w3.org/1999/02/22-rdf-syntax-ns#"
   xmlns:svg="http://www.w3.org/2000/svg"
   xmlns="http://www.w3.org/2000/svg"
   xmlns:sodipodi="http://sodipodi.sourceforge.net/DTD/sodipodi-0.dtd"
   xmlns:inkscape="http://www.inkscape.org/namespaces/inkscape"
   version="1.1"
   width="26.625999"
   height="26.625999"
   viewBox="0 0 26.625999 26.625999"
   id="svg177"
   sodipodi:docname="icon-help.svg"
   inkscape:version="0.92.2 5c3e80d, 2017-08-06">
  <metadata
     id="metadata183">
    <rdf:RDF>
      <cc:Work
         rdf:about="">
        <dc:format>image/svg+xml</dc:format>
        <dc:type
           rdf:resource="http://purl.org/dc/dcmitype/StillImage" />
      </cc:Work>
    </rdf:RDF>
  </metadata>
  <defs
     id="defs181" />
  <sodipodi:namedview
     pagecolor="#ffffff"
     bordercolor="#666666"
     borderopacity="1"
     objecttolerance="10"
     gridtolerance="10"
     guidetolerance="10"
     inkscape:pageopacity="0"
     inkscape:pageshadow="2"
     inkscape:window-width="640"
     inkscape:window-height="480"
     id="namedview179"
     showgrid="false"
     inkscape:zoom="7.375"
     inkscape:cx="13.313"
     inkscape:cy="13.314"
     inkscape:window-x="0"
     inkscape:window-y="0"
     inkscape:window-maximized="0"
     inkscape:current-layer="svg177" />
  <title
     id="title173">help</title>
  <path
     d="m 17.376,12.312 c 0.75,-0.75 1.25,-1.813 1.25,-3 0,-2.938 -2.375,-5.313 -5.313,-5.313 C 10.375,3.999 8,6.374 8,9.312 h 2.625 c 0,-1.438 1.25,-2.688 2.688,-2.688 1.438,0 2.688,1.25 2.688,2.688 0,0.75 -0.313,1.375 -0.813,1.875 l -1.625,1.688 c -0.938,1 -1.563,2.313 -1.563,3.75 v 0.688 h 2.625 c 0,-2 0.625,-2.75 1.563,-3.75 z m -2.75,10.313 V 20 h -2.625 v 2.625 z M 13.313,0 c 7.375,0 13.313,5.938 13.313,13.313 0,7.375 -5.938,13.313 -13.313,13.313 C 5.938,26.626 0,20.688 0,13.313 0,5.938 5.938,0 13.313,0 Z"
     id="path175"
     inkscape:connector-curvature="0" />
</svg>
