<?xml version="1.0" encoding="UTF-8" standalone="no"?>
<!-- Generated by IcoMoon.io -->

<svg
   xmlns:dc="http://purl.org/dc/elements/1.1/"
   xmlns:cc="http://creativecommons.org/ns#"
   xmlns:rdf="http://www.w3.org/1999/02/22-rdf-syntax-ns#"
   xmlns:svg="http://www.w3.org/2000/svg"
   xmlns="http://www.w3.org/2000/svg"
   xmlns:sodipodi="http://sodipodi.sourceforge.net/DTD/sodipodi-0.dtd"
   xmlns:inkscape="http://www.inkscape.org/namespaces/inkscape"
   version="1.1"
   width="26.625999"
   height="26.625999"
   viewBox="0 0 26.625999 26.625999"
   id="svg6"
   sodipodi:docname="info.svg"
   inkscape:version="0.92.2 5c3e80d, 2017-08-06">
  <metadata
     id="metadata12">
    <rdf:RDF>
      <cc:Work
         rdf:about="">
        <dc:format>image/svg+xml</dc:format>
        <dc:type
           rdf:resource="http://purl.org/dc/dcmitype/StillImage" />
      </cc:Work>
    </rdf:RDF>
  </metadata>
  <defs
     id="defs10" />
  <sodipodi:namedview
     pagecolor="#ffffff"
     bordercolor="#666666"
     borderopacity="1"
     objecttolerance="10"
     gridtolerance="10"
     guidetolerance="10"
     inkscape:pageopacity="0"
     inkscape:pageshadow="2"
     inkscape:window-width="640"
     inkscape:window-height="480"
     id="namedview8"
     showgrid="false"
     inkscape:zoom="7.375"
     inkscape:cx="13.313"
     inkscape:cy="13.314"
     inkscape:window-x="229"
     inkscape:window-y="112"
     inkscape:window-maximized="0"
     inkscape:current-layer="svg6" />
  <title
     id="title2">info_outline</title>
  <path
     d="M 12.001,9.312 V 6.624 h 2.625 V 9.312 Z M 13.313,24 C 19.188,24 24.001,19.187 24.001,13.312 24.001,7.437 19.188,2.624 13.313,2.624 7.438,2.624 2.625,7.437 2.625,13.312 2.625,19.187 7.438,24 13.313,24 Z m 0,-24 c 7.375,0 13.313,5.938 13.313,13.313 0,7.375 -5.938,13.313 -13.313,13.313 C 5.938,26.626 0,20.688 0,13.313 0,5.938 5.938,0 13.313,0 Z m -1.312,20 v -8 h 2.625 v 8 z"
     id="path4"
     inkscape:connector-curvature="0" />
</svg>
