<?xml version="1.0" encoding="UTF-8" standalone="no"?>
<!-- Generated by IcoMoon.io -->

<svg
   xmlns:dc="http://purl.org/dc/elements/1.1/"
   xmlns:cc="http://creativecommons.org/ns#"
   xmlns:rdf="http://www.w3.org/1999/02/22-rdf-syntax-ns#"
   xmlns:svg="http://www.w3.org/2000/svg"
   xmlns="http://www.w3.org/2000/svg"
   xmlns:sodipodi="http://sodipodi.sourceforge.net/DTD/sodipodi-0.dtd"
   xmlns:inkscape="http://www.inkscape.org/namespaces/inkscape"
   version="1.1"
   width="15.714"
   height="22.464001"
   viewBox="0 0 15.714 22.464001"
   id="svg6"
   sodipodi:docname="lightbulb.svg"
   inkscape:version="0.92.2 5c3e80d, 2017-08-06">
  <metadata
     id="metadata12">
    <rdf:RDF>
      <cc:Work
         rdf:about="">
        <dc:format>image/svg+xml</dc:format>
        <dc:type
           rdf:resource="http://purl.org/dc/dcmitype/StillImage" />
      </cc:Work>
    </rdf:RDF>
  </metadata>
  <defs
     id="defs10" />
  <sodipodi:namedview
     pagecolor="#ffffff"
     bordercolor="#666666"
     borderopacity="1"
     objecttolerance="10"
     gridtolerance="10"
     guidetolerance="10"
     inkscape:pageopacity="0"
     inkscape:pageshadow="2"
     inkscape:window-width="640"
     inkscape:window-height="480"
     id="namedview8"
     showgrid="false"
     inkscape:zoom="8.7407407"
     inkscape:cx="7.857"
     inkscape:cy="11.232"
     inkscape:window-x="283"
     inkscape:window-y="118"
     inkscape:window-maximized="0"
     inkscape:current-layer="svg6" />
  <title
     id="title2">lightbulb_outline</title>
  <path
     d="M 11.074,12.445 C 12.603,11.39 13.5,9.703 13.5,7.857 13.5,4.746 10.969,2.214 7.857,2.214 c -3.112,0 -5.643,2.531 -5.643,5.643 0,1.846 0.896,3.533 2.426,4.588 l 0.949,0.686 v 2.584 h 4.535 V 13.131 Z M 7.857,0 c 4.324,0 7.857,3.533 7.857,7.857 0,2.689 -1.318,5.01 -3.375,6.434 v 2.584 c 0,0.633 -0.475,1.107 -1.107,1.107 h -6.75 c -0.633,0 -1.107,-0.475 -1.107,-1.107 V 14.291 C 1.318,12.867 0,10.547 0,7.857 0,3.533 3.533,0 7.857,0 Z M 4.482,21.357 V 20.25 h 6.75 v 1.107 c 0,0.633 -0.475,1.107 -1.107,1.107 H 5.59 c -0.633,0 -1.107,-0.475 -1.107,-1.107 z"
     id="path4"
     inkscape:connector-curvature="0" />
</svg>
