<!-- Generated by IcoMoon.io -->
<svg version="1.1" xmlns="http://www.w3.org/2000/svg" width="27" height="27" viewBox="0 0 27 27">
<title>cross</title>
<path d="M26.754 21.691c-0-0-0-0-0-0l-8.191-8.191 8.191-8.191c0-0 0-0 0-0 0.088-0.088 0.152-0.191 0.193-0.301 0.112-0.3 0.048-0.651-0.193-0.892l-3.869-3.869c-0.241-0.241-0.592-0.305-0.892-0.193-0.11 0.041-0.213 0.105-0.301 0.193 0 0-0 0-0 0l-8.191 8.191-8.191-8.191c-0-0-0-0-0-0-0.088-0.088-0.191-0.152-0.301-0.193-0.3-0.112-0.651-0.048-0.892 0.193l-3.869 3.869c-0.241 0.241-0.305 0.592-0.193 0.892 0.041 0.11 0.105 0.213 0.193 0.301 0 0 0 0 0 0l8.191 8.191-8.191 8.191c-0 0-0 0-0 0-0.088 0.088-0.152 0.191-0.193 0.301-0.112 0.3-0.048 0.651 0.193 0.892l3.869 3.869c0.241 0.241 0.592 0.305 0.892 0.193 0.11-0.041 0.213-0.105 0.301-0.193 0-0 0-0 0-0l8.191-8.191 8.191 8.191c0 0 0 0 0 0 0.088 0.088 0.191 0.152 0.301 0.193 0.3 0.112 0.651 0.048 0.892-0.193l3.869-3.869c0.241-0.241 0.305-0.592 0.193-0.892-0.041-0.11-0.105-0.213-0.193-0.301z"></path>
</svg>
